<svg width="1280" height="720" viewBox="0 0 1280 720" xmlns="http://www.w3.org/2000/svg">
  <rect width="1280" height="720" fill="#09090b"/>
  
  <!-- Subtle background glow -->
  <circle cx="1000" cy="150" r="300" fill="#ec4899" opacity="0.12"/>
  <circle cx="200" cy="600" r="250" fill="#3b82f6" opacity="0.1"/>

  <!-- Top Header Frame -->
  <rect x="40" y="30" width="1200" height="110" rx="20" fill="#18181b" stroke="#ec4899" stroke-width="2"/>
  <text x="70" y="70" fill="#ec4899" font-family="Arial, sans-serif" font-size="16" font-weight="bold" letter-spacing="2">SHOP HOÀNG HIỆP • HƯỚNG DẪN CÀI ĐẶT AIM PROXY</text>
  <text x="70" y="110" fill="#ffffff" font-family="Arial, sans-serif" font-size="30" font-weight="900">BƯỚC 1: SAO CHÉP LINK & KEY TỪ MESSENGER</text>
  
  <rect x="980" y="55" width="230" height="40" rx="12" fill="#ec4899" opacity="0.2" stroke="#ec4899" stroke-width="1.5"/>
  <text x="1000" y="81" fill="#f472b6" font-family="Arial, sans-serif" font-size="14" font-weight="bold">TRÌNH CHIẾU VIDEO 1/8</text>

  <!-- iPhone Mockup Card Container -->
  <rect x="200" y="160" width="880" height="480" rx="24" fill="#0c0c0e" stroke="#3f3f46" stroke-width="2"/>
  
  <!-- Sub-header bar inside phone card -->
  <rect x="200" y="160" width="880" height="50" rx="24" fill="#18181b"/>
  <circle cx="230" cy="185" r="6" fill="#ef4444"/>
  <circle cx="250" cy="185" r="6" fill="#f59e0b"/>
  <circle cx="270" cy="185" r="6" fill="#10b981"/>
  <text x="300" y="191" fill="#a1a1aa" font-family="Arial, sans-serif" font-size="16" font-weight="bold">📱 GIAO DIỆN IPHONE: MESSENGER CHAT</text>

  <!-- Mock UI lines -->
  
        <rect x="240" y="242" width="800" height="44" rx="10" fill="#18181b" stroke="#27272a" stroke-width="1.5"/>
        <text x="260" y="270" fill="#ffffff" font-family="Arial, sans-serif" font-size="20" font-weight="bold">MESSENGER - Hiếu, Duy</text>
        
        <rect x="240" y="297" width="800" height="44" rx="10" fill="#18181b" stroke="#27272a" stroke-width="1.5"/>
        <text x="260" y="325" fill="#f472b6" font-family="Arial, sans-serif" font-size="20" font-weight="bold">🔗 https://chunchuche.io.vn/v2/activate.php</text>
        
        <rect x="240" y="352" width="800" height="44" rx="10" fill="#18181b" stroke="#27272a" stroke-width="1.5"/>
        <text x="260" y="380" fill="#fbbf24" font-family="Arial, sans-serif" font-size="20" font-weight="bold">🔑 Access Key: BCE1FAB8E2</text>
        
        <rect x="240" y="407" width="800" height="44" rx="10" fill="#18181b" stroke="#27272a" stroke-width="1.5"/>
        <text x="260" y="435" fill="#38bdf8" font-family="Arial, sans-serif" font-size="20" font-weight="bold">👤 Game UID: 15761653447</text>
        
        <rect x="240" y="462" width="800" height="44" rx="10" fill="#18181b" stroke="#27272a" stroke-width="1.5"/>
        <text x="260" y="490" fill="#34d399" font-family="Arial, sans-serif" font-size="20" font-weight="bold">👉 Nhấn giữ để 'Sao Chép' link</text>
        

  <!-- Description Banner at bottom -->
  <rect x="240" y="570" width="800" height="50" rx="12" fill="#27272a" stroke="#ec4899" stroke-width="1"/>
  <text x="260" y="601" fill="#f472b6" font-family="Arial, sans-serif" font-size="16" font-weight="bold">💡 Ghi chú: Mở Messenger, sao chép link chunchuche.io.vn/v2/activate.php và Access Key [BCE1FAB8E2]</text>

  <!-- Bottom Brand Footer -->
  <text x="640" y="685" text-anchor="middle" fill="#71717a" font-family="Arial, sans-serif" font-size="14" font-weight="bold">Website Kích Hoạt: chunchuche.io.vn/v2/activate.php • Hỗ trợ 24/7 Shop Hoàng Hiệp</text>
</svg>